<svg xmlns="http://www.w3.org/2000/svg" viewBox="0 0 880 880">
  <g>
    <path d="M380,480v60h-40v60h150.9a9,9,0,0,0,9-9.31Q495.28,480.06,380,480Z" fill="#333"/>
    <path d="M359.94,360v-40h-60v150.9a9,9,0,0,0,9.3,9Q419.94,475.28,420,360Z" fill="#333"/>
    <path d="M299.91,159.83q-120,0-120.08,120.08h0V389.74a10,10,0,0,0,10.56,10q109.48-5.16,109.51-119.82h0q0-56.15-52.53-59.79a3,3,0,0,1-1.63-5.36q19.63-14.89,54.16-14.9,80,0,80,80.05h-20v40h60v-40Q420,159.86,299.91,159.83Z" fill="#333"/>
    <path d="M429.17,279.91a9,9,0,0,0-9,9.3Q424.72,399.94,540.05,400v-60h40v-60Z" fill="#333"/>
    <path d="M630.66,100a10,10,0,0,0-10.56,10V219.87q0,60,60,60a98.72,98.72,0,0,0,14.07-1,5,5,0,0,1,5.8,5.13c-1.9,52.7-28.53,75.86-79.9,75.86v-20h-40v60h40q120,0,120.07-120.07v-60Q740.17,105.24,630.66,100Z" fill="#333"/>
    <path d="M620.09,409.17a9,9,0,0,0-9.3-9Q500.06,404.72,500,520.05h60v40h60Z" fill="#333"/>
    <path d="M299.91,480q-120,0-120.08,120.08Q65.2,600.1,60,709.6a10,10,0,0,0,10,10.57H179.83q60,0,60-60,0-34.25-19.57-49h0c-.28-3.56-.44-7.24-.44-11.07q0-80,80.05-80.05v20h40V480Z" fill="#333"/>
    <path d="M540,600.1h20v-40H500v40h0q0,120,120,120.07H470.24a10,10,0,0,0-10,10.56q5.17,109.49,119.83,109.51h40V870a10,10,0,0,0,10.56,10q109.49-5.16,109.51-119.83h0v-40q0-60-60-60h0q-34.3,0-49,19.64c-3.53.27-7.16.43-11,.43h-.06Q540.13,680.17,540,600.1Z" fill="#333"/>
    <path d="M269.89,580.08c12.15,0,20-7.85,20-20s-7.86-20-20-20-20,7.86-20,20S257.73,580.08,269.89,580.08Zm0-30q10,0,10,10t-10,10q-10,0-10-10T269.89,550.07Z" fill="#333"/>
    <path d="M339.93,229.88c-12.16,0-20,7.85-20,20s7.85,20,20,20,20-7.86,20-20S352.09,229.88,339.93,229.88Zm0,30q-10,0-10-10t10-10q10,0,10,10T339.93,259.89Z" fill="#333"/>
    <path d="M650.11,299.92c-12.15,0-20,7.85-20,20s7.86,20,20,20,20-7.85,20-20S662.27,299.92,650.11,299.92Zm0,30q-10,0-10-10t10-10q10,0,10,10T650.11,329.94Z" fill="#333"/>
    <path d="M580.07,610.1c-12.15,0-20,7.86-20,20s7.86,20,20,20,20-7.86,20-20S592.23,610.1,580.07,610.1Zm0,30q-10,0-10-10t10-10q10,0,10,10T580.07,640.12Z" fill="#333"/>
  </g>
</svg>
