<svg xmlns="http://www.w3.org/2000/svg" viewBox="0 0 880 880">
  <g>
    <rect x="299.88" y="479.99" width="40.02" height="60.04" fill="#ed0"/>
    <path d="M299.88,540h40a0,0,0,0,1,0,0v60a0,0,0,0,1,0,0h-35a5,5,0,0,1-5-5V540A0,0,0,0,1,299.88,540Z" fill="#19f"/>
    <path d="M379.92,480V600.07H490.8a9,9,0,0,0,9-9.31Q495.25,480,379.92,480Z" fill="#333"/>
    <rect x="339.9" y="540.03" width="40.02" height="60.04" fill="#333"/>
    <rect x="339.9" y="479.99" width="40.02" height="60.04" fill="#e21"/>
    <rect x="369.92" y="269.87" width="40.02" height="60.04" transform="translate(689.82 -90.04) rotate(90)" fill="#ed0"/>
    <path d="M309.88,269.87h40a0,0,0,0,1,0,0v60a0,0,0,0,1,0,0h-35a5,5,0,0,1-5-5v-55A0,0,0,0,1,309.88,269.87Z" transform="translate(629.78 -30.01) rotate(90)" fill="#19f"/>
    <path d="M299.88,359.92V470.8a9,9,0,0,0,9.3,9Q419.91,475.25,420,359.92Z" fill="#333"/>
    <rect x="299.88" y="319.9" width="60.04" height="40.02" fill="#333"/>
    <rect x="369.92" y="309.89" width="40.02" height="60.04" transform="translate(729.84 -50.02) rotate(90)" fill="#e21"/>
    <path d="M299.88,159.8q-120,0-120.08,120.08h0V389.71a10,10,0,0,0,10.56,10q109.49-5.16,109.51-119.82h0q0-56.15-52.53-59.79a3,3,0,0,1-1.63-5.36q19.64-14.89,54.16-14.9,80,0,80,80h40Q420,159.83,299.88,159.8Z" fill="#333"/>
    <rect x="580.04" y="339.91" width="40.02" height="60.04" transform="translate(1200.11 739.86) rotate(-180)" fill="#ed0"/>
    <path d="M580,279.88h40a0,0,0,0,1,0,0v60a0,0,0,0,1,0,0H585a5,5,0,0,1-5-5v-55A0,0,0,0,1,580,279.88Z" transform="translate(1200.11 619.79) rotate(-180)" fill="#19f"/>
    <path d="M420.13,289.18Q424.69,399.91,540,400V279.88H429.14A9,9,0,0,0,420.13,289.18Z" fill="#333"/>
    <rect x="540.02" y="279.88" width="40.02" height="60.04" fill="#333"/>
    <rect x="540.02" y="339.91" width="40.02" height="60.04" transform="translate(1120.06 739.86) rotate(-180)" fill="#e21"/>
    <path d="M630.63,100a10,10,0,0,0-10.56,10V219.84q0,60,60,60a98.72,98.72,0,0,0,14.07-.95,5,5,0,0,1,5.8,5.13c-1.9,52.7-28.53,75.86-79.9,75.86v40q120,0,120.07-120.07v-60Q740.14,105.21,630.63,100Z" fill="#333"/>
    <rect x="510" y="550.04" width="40.02" height="60.04" transform="translate(-50.04 1110.07) rotate(-90)" fill="#ed0"/>
    <path d="M570,550h40a0,0,0,0,1,0,0v60a0,0,0,0,1,0,0H575a5,5,0,0,1-5-5V550A0,0,0,0,1,570,550Z" transform="translate(9.99 1170.1) rotate(-90)" fill="#19f"/>
    <path d="M620.06,409.14a9,9,0,0,0-9.3-9Q500,404.69,500,520H620.06Z" fill="#333"/>
    <rect x="560.03" y="520.02" width="60.04" height="40.02" fill="#333"/>
    <rect x="510" y="510.01" width="40.02" height="60.04" transform="translate(-10.02 1070.04) rotate(-90)" fill="#e21"/>
    <path d="M179.8,600.07Q65.17,600.07,60,709.57a10,10,0,0,0,10,10.57H179.8q60,0,60-60,0-34.25-19.57-49h0c-.28-3.56-.44-7.24-.44-11.07q0-80,80-80.05V480Q179.83,480,179.8,600.07Z" fill="#333"/>
    <path d="M680.1,660.1h0q-34.3,0-49,19.64c-3.53.27-7.16.43-11,.43h-.06q-80,0-80-80l-40.09,0q0,120,120,120.07H470.21a10,10,0,0,0-10,10.56Q465.39,840.19,580,840.21h40V870a10,10,0,0,0,10.56,10q109.49-5.16,109.51-119.83h0v-40Q740.14,660.11,680.1,660.1Z" fill="#333"/>
    <circle cx="269.86" cy="560.04" r="10.01" fill="#333"/>
    <path d="M219.83,600.07c0,3.83.16,7.51.44,11.07q19.56,14.72,19.57,49,0,58.14-56.34,60,116.31-1.86,116.38-120V520Q219.86,520,219.83,600.07Zm50-60c12.15,0,20,7.86,20,20s-7.86,20-20,20-20-7.85-20-20S257.7,540,269.86,540Z" fill="#fff"/>
    <path d="M269.86,580.05c12.15,0,20-7.85,20-20s-7.86-20-20-20-20,7.86-20,20S257.7,580.05,269.86,580.05Zm0-30q10,0,10,10t-10,10q-10,0-10-10T269.86,550Z" fill="#19f"/>
    <circle cx="339.9" cy="249.86" r="10.01" fill="#333"/>
    <path d="M299.88,199.83q-34.53,0-54.16,14.9a3,3,0,0,0,1.63,5.36q52.52,3.63,52.53,59.79h80Q379.92,199.86,299.88,199.83Zm40,70c-12.16,0-20-7.86-20-20s7.85-20,20-20,20,7.85,20,20S352.06,269.87,339.9,269.87Z" fill="#fff"/>
    <path d="M339.9,229.85c-12.16,0-20,7.85-20,20s7.85,20,20,20,20-7.86,20-20S352.06,229.85,339.9,229.85Zm0,30q-10,0-10-10t10-10q10,0,10,10T339.9,259.86Z" fill="#19f"/>
    <circle cx="650.08" cy="319.9" r="10.01" fill="#333"/>
    <path d="M700,284.06a5,5,0,0,0-5.8-5.13,98.72,98.72,0,0,1-14.07.95q-60,0-60-60V359.92C671.44,359.92,698.07,336.76,700,284.06Zm-49.89,55.85c-12.15,0-20-7.85-20-20s7.86-20,20-20,20,7.85,20,20S662.24,339.91,650.08,339.91Z" fill="#fff"/>
    <path d="M650.08,299.89c-12.15,0-20,7.85-20,20s7.86,20,20,20,20-7.85,20-20S662.24,299.89,650.08,299.89Zm0,30q-10,0-10-10t10-10q10,0,10,10T650.08,329.91Z" fill="#19f"/>
    <circle cx="580.04" cy="630.08" r="10.01" fill="#333"/>
    <path d="M620.12,600.12h-80q0,80,80,80c3.84,0,7.52-.16,11.08-.44q14.71-19.56,49-19.57,58.14,0,60,56.34Q738.28,600.19,620.12,600.12ZM580,650.1c-12.15,0-20-7.86-20-20s7.86-20,20-20,20,7.86,20,20S592.2,650.1,580,650.1Z" fill="#fff"/>
    <path d="M580,610.07c-12.15,0-20,7.86-20,20s7.86,20,20,20,20-7.86,20-20S592.2,610.07,580,610.07Zm0,30q-10,0-10-10t10-10q10,0,10,10T580,640.09Z" fill="#19f"/>
  </g>
</svg>
