<svg xmlns="http://www.w3.org/2000/svg" viewBox="0 0 660 660" fill="none" stroke="#333" stroke-width="20">
  <title>owl quartet one color</title>
  <!-- Designed by Metafizzy, 2017 -->
  <path d="M230 490h-60c-80 0-140-60-140-140V190h200zM130 190H30l100 100 100-100m100 180s-100-20-100-100v260c0 80 100 100 100 100s100-20 100-100V270c0 80-100 100-100 100zm200-200a100 100 0 0 0-100 100v220h60c80 0 140-60 140-140v-80a100 100 0 0 0-100-100zm-100-40A100 100 0 0 0 330 30a100 100 0 0 0-100 100v140c0 80 100 100 100 100s100-20 100-100zm-200 80l51.7 51.7a40 40 0 0 1 0 56.6l-19.2 19.2M430 210l-51.7 51.7a40 40 0 0 0 0 56.6l19.2 19.2M130 484.5V370h100m100-160c55.2 0 100-24.8 100-80 0-60-60.8-98.7-100-40-39.2-58.8-100-20-100 40 0 55.2 44.8 80 100 80zm40 405.5V550a60 60 0 0 1 60-60M290 615.5V550a60 60 0 0 0-60-60m200-6.7a70 70 0 1 0 0-126.5m0-186.8c100 40 100 160 100 160m100-160c-100 40-100 160-100 160m-200 80v60m-60-340h20l40 40 40-40h20" />
  <circle cx="70" cy="290" r="10"/>
  <circle cx="190" cy="290" r="10"/>
  <circle cx="270" cy="410" r="10"/>
  <circle cx="390" cy="410" r="10"/>
  <circle cx="470" cy="290" r="10"/>
  <circle cx="590" cy="290" r="10"/>
  <circle cx="270" cy="130" r="10"/>
  <circle cx="390" cy="130" r="10"/>
</svg>
