<svg xmlns="http://www.w3.org/2000/svg" viewBox="0 0 460 460">
  <title>shape-skull-one-color-outline</title>
  <!-- Designed by Metafizzy, 2017 -->
  <path d="M230 0h-3A220 220 0 0 0 27 304 41 41 0 0 1 30 320V344a56 56 0 0 0 56 56h14v10a50 50 0 0 0 50 50H310a50 50 0 0 0 50-50V400h14a56 56 0 0 0 56-56V320a38 38 0 0 1 3-15A220 220 0 0 0 230 0ZM410 220a179 179 0 0 1-14 70 78 78 0 0 0-6 30V344a16 16 0 0 1-16 16H360a40 40 0 0 0-40 40v10a10 10 0 0 1-10 10H300a8 8 0 0 1-7-5l-6-11a8 8 0 0 0-15 0l-6 11A8 8 0 0 1 260 420H250a8 8 0 0 1-7-5l-6-11a8 8 0 0 0-15 0l-6 11A8 8 0 0 1 210 420H200a8 8 0 0 1-7-5l-6-11a8 8 0 0 0-15 0l-6 11A8 8 0 0 1 160 420H150a10 10 0 0 1-10-10V400a40 40 0 0 0-40-40H86a16 16 0 0 1-16-16V320a81 81 0 0 0-6-31A179 179 0 0 1 50 219c0-98 80-178 178-179H230A180 180 0 0 1 410 220ZM140 290a50 50 0 1 1 50-50A50 50 0 0 1 140 290Zm145-5h70a10 10 0 0 0 10-10V205a10 10 0 0 0-10-10H285a10 10 0 0 0-10 10v70A10 10 0 0 0 285 285Zm-62-9L182 348a8 8 0 0 0 7 12h83a8 8 0 0 0 7-12l-42-72A8 8 0 0 0 223 276Z" fill="#333"/>
</svg>
