<svg xmlns="http://www.w3.org/2000/svg" viewBox="0 0 460 460">
  <title>shape-skull-one-color-fill</title>
  <!-- Designed by Metafizzy, 2017 -->
  <path d="M230 40h-2C130 41 50 121 50 219a179 179 0 0 0 14 70 81 81 0 0 1 6 31V344a16 16 0 0 0 16 16h14a40 40 0 0 1 40 40v10a10 10 0 0 0 10 10h10a8 8 0 0 0 7-5l6-11a8 8 0 0 1 15 0l6 11A8 8 0 0 0 200 420h10a8 8 0 0 0 7-5l6-11a8 8 0 0 1 15 0l6 11A8 8 0 0 0 250 420h10a8 8 0 0 0 7-5l6-11a8 8 0 0 1 15 0l6 11A8 8 0 0 0 300 420h10a10 10 0 0 0 10-10V400a40 40 0 0 1 40-40h14a16 16 0 0 0 16-16V320a78 78 0 0 1 6-30A180 180 0 0 0 230 40ZM140 290a50 50 0 1 1 50-50A50 50 0 0 1 140 290Zm132 70H189a8 8 0 0 1-7-12l42-72a8 8 0 0 1 14 0L279 348A8 8 0 0 1 272 360ZM365 275a10 10 0 0 1-10 10H285a10 10 0 0 1-10-10V205a10 10 0 0 1 10-10h70a10 10 0 0 1 10 10Z" fill="#333"/>
</svg>
