<svg xmlns="http://www.w3.org/2000/svg" viewBox="0 0 480 480">
  <title>sunset-hero-figure</title>
  <!-- Designed by Metafizzy, 2017 -->
  <path d="M100 400a40 40 0 0 0 23-8l-21 88h52l46-110 42 110h55l-47-200 17-36 43 36 39-15a40 40 0 0 0 21 14v11h-34l-23 23 14 14 17-17h16v160l5 10h30l5-10V310h16l17 17 14-14-23-23h-34v-11a40 40 0 0 0 0-77v-22h-20v21a40 40 0 0 0-22 15l-28 4-16-27 6-3v-20h-46l28-28-16-32h34L290 0l-38 26a90 90 0 0 0-108 144H80v20l16 8-20 130a40 40 0 0 0 24 72zm154-290l14 28-29 29-29-57zM144 262l6 18-15 61a40 40 0 0 0-12-14z" fill="#705"/>
</svg>
