<svg xmlns="http://www.w3.org/2000/svg" viewBox="0 0 1000 1000">
  <title>a-star-one-color-fill</title>
  <!-- Designed by Metafizzy, 2017 -->
  <path d="M435,225H324l40-124a48,48,0,0,1,46-33H590a48,48,0,0,1,46,33l40,124H565a63,63,0,0,0-62,53h-7a63,63,0,0,0-62-53ZM281,399a32,32,0,0,0,26,13H407l12-3h0a32,32,0,0,0,16-19l28-85h0l2-7a33,33,0,0,0-31-43H314L277,370A32,32,0,0,0,281,399Zm92,145a33,33,0,0,0-9-9l-79-57a32,32,0,0,0-19-6l-10,2a32,32,0,0,0-21,21L199,609l98,71a33,33,0,0,0,50-16l2-7h0l9-29,18-56a32,32,0,0,0-3-27ZM539,268a32,32,0,0,0-5,29h0l2,7h0l28,85a32,32,0,0,0,31,22h97a33,33,0,0,0,31-43L686,255H565A32,32,0,0,0,539,268ZM208,485a63,63,0,0,1,70-42v-7a63,63,0,0,1-32-75l34-106H152a48,48,0,0,0-46,33L50,460a48,48,0,0,0,18,54l105,77ZM645,638l8,25a33,33,0,0,0,50,16l98-71L764,494a33,33,0,0,0-50-16h0l-79,57a32,32,0,0,0-12,36ZM894,288a48,48,0,0,0-46-33H718l34,106a63,63,0,0,1-32,75v7a63,63,0,0,1,70,42l34,106,105-77a48,48,0,0,0,18-54ZM611,731a32,32,0,0,0-13-26h0l-6-5h0l-72-53a32,32,0,0,0-38,0l-72,53h0l-6,5a33,33,0,0,0,0,53l98,71,98-71A32,32,0,0,0,611,731Zm-252,0a62,62,0,0,1,7-29l-3-2-3-2a62,62,0,0,1-25,16,63,63,0,0,1-20,3,62,62,0,0,1-37-12l-90-65L149,763a48,48,0,0,0,18,54L312,923a48,48,0,0,0,57,0l105-77-90-65A62,62,0,0,1,359,731Zm362-26a62,62,0,0,1-37,12,63,63,0,0,1-20-3,62,62,0,0,1-25-16l-3,2-3,2a63,63,0,0,1-19,80l-90,65,105,77a48,48,0,0,0,57,0L834,817a48,48,0,0,0,18-54L811,639Z" fill="#333"/>
</svg>
