<svg xmlns="http://www.w3.org/2000/svg" viewBox="0 0 1000 1000" fill="none" stroke="#333" stroke-width="40">
  <title>a-star-one-color-stroke</title>
  <!-- Designed by Metafizzy, 2017 -->
  <path d="M308,427h97a48,48,0,0,0,45-33l28-85c7-22,38-22,45,0l28,85a48,48,0,0,0,45,33h97a48,48,0,0,0,45-62L650,96a63,63,0,0,0-60-44H410a63,63,0,0,0-60,44L262,365A48,48,0,0,0,308,427Z"/>
  <path d="M361,668l30-92a48,48,0,0,0-17-53l-72-53c-19-14-9-43,14-43h89a48,48,0,0,0,45-33l30-92a48,48,0,0,0-45-62H152a63,63,0,0,0-60,44L36,455a63,63,0,0,0,23,71L288,692A48,48,0,0,0,361,668Z"/>
  <path d="M606,692l-79-57a48,48,0,0,0-56,0l-72,53c-19,14-44-5-37-27l28-85a48,48,0,0,0-17-53l-79-57a48,48,0,0,0-73,24L135,758a63,63,0,0,0,23,71L303,935a63,63,0,0,0,75,0L606,769A48,48,0,0,0,606,692Z"/>
  <path d="M705,466l-79,57a48,48,0,0,0-17,53l28,85c7,22-18,40-37,27l-72-53a48,48,0,0,0-56,0l-79,57a48,48,0,0,0,0,77L622,935a63,63,0,0,0,75,0L842,829a63,63,0,0,0,23-71L778,490A48,48,0,0,0,705,466Z"/>
  <path d="M520,302l30,92a48,48,0,0,0,45,33h89c23,0,33,29,14,43l-72,53a48,48,0,0,0-17,53l30,92a48,48,0,0,0,73,24L941,526a63,63,0,0,0,23-71L908,284a63,63,0,0,0-60-44H565A48,48,0,0,0,520,302Z"/>
</svg>
