<svg xmlns="http://www.w3.org/2000/svg" viewBox="0 0 1000 1000">
  <title>samurai-head-one-color</title>
  <!-- Designed by Metafizzy, 2017 -->
  <path fill="#346" d="M220 675a18 18 0 1 1-19-18 18 18 0 0 1 19 18zm395-61a18 18 0 1 0 18 18 18 18 0 0 0-18-18zm-229 0a18 18 0 1 0 18 18 18 18 0 0 0-19-18zm115 24a18 18 0 1 0 18 18 18 18 0 0 0-19-19zM264 534a18 18 0 1 0 18 18 18 18 0 0 0-18-18zm-128-25a18 18 0 1 0-18-18 18 18 0 0 0 18 18zm-59 87a18 18 0 1 0 18 18 18 18 0 0 0-18-18zm87 47a55 55 0 1 1 55-55 55 55 0 0 1-55 55zm23-55a23 23 0 1 0-23 23 23 23 0 0 0 22-24zm705 0a55 55 0 1 1-55-55 55 55 0 0 1 55 54zm-33 0a23 23 0 1 0-23 23 23 23 0 0 0 23-24zm89 104c12 25 20 48 20 68 0 115-87 177-90 180l-19 13-78-156c-24-13-58-27-102-38l-54 90a110 110 0 0 1-94 53h-62a110 110 0 0 1-94-53l-54-90c-44 11-78 25-102 38l-78 156-19-14c-4-2-90-64-90-179 0-20 8-43 20-68a167 167 0 0 1-35-39C3 631 1 614 1 612l-1-6 132-261 16 43s19 47 74 77c10-12 19-23 26-33a262 262 0 0 1 7-34c-5-20-10-42-15-64-17-70-34-142-45-179-18-58-29-76-29-76l-22-32h39c76 0 139 31 167 82 78 5 88 55 89 57l2 10-7 8a172 172 0 0 0-15 19 267 267 0 0 1 164 0 171 171 0 0 0-15-19l-7-8 2-10c0-2 11-52 89-57 28-51 91-82 167-82h39l-24 32s-11 18-29 76c-11 37-28 109-45 179-5 22-10 44-15 64a262 262 0 0 1 7 34c7 10 16 20 26 33 55-30 74-76 74-77l17-43 21 41 110 220-1 6c0 2-5 41-51 80zM419 394a81 81 0 1 0 81-82 81 81 0 0 0-81 82zm-139-69c14 61 28 118 36 144 29 94 128 108 184 108s155-14 184-108c8-26 22-84 36-144 17-71 34-144 46-182 7-23 13-40 18-53-49 7-87 32-102 67l-5 12h-14c-35 0-51 10-57 17 14 17 37 50 37 84v162c0 61-57 102-143 102s-142-39-142-100v-77-86c0-34 23-67 37-84-7-7-22-17-57-17h-14l-5-12c-15-35-53-59-102-67 5 13 11 30 18 53 11 37 28 110 45 181zm25 212q-3-4-6-9a224 224 0 0 1-168-90L42 613c4 12 19 45 73 72s92 21 105 17zm376 135c-42 36-102 68-181 68s-139-32-181-68a69 69 0 0 0 7 18l84 139a69 69 0 0 0 59 33h62a69 69 0 0 0 59-33l84-139a69 69 0 0 0 7-18zm5-63l-21-41c-34 28-86 50-165 50s-131-22-165-50l-21 41c36 42 96 90 186 90s151-48 186-90zm272 4l-89-175a224 224 0 0 1-168 90q-3 4-6 9l84 165c13 4 50 10 105-17s70-60 74-72zm-35 19a18 18 0 1 0-18-18 18 18 0 0 0 18 18zm-77-141a18 18 0 1 0 18-18 18 18 0 0 0-18 18zm-110 43a18 18 0 1 0 18 18 18 18 0 0 0-18-18zm63 123a18 18 0 1 0 18 18 18 18 0 0 0-18-18z"/>
</svg>
