<svg xmlns="http://www.w3.org/2000/svg" viewBox="0 0 370 370">
  <title>interlock-filled</title>
  <!-- Designed by Metafizzy, 2017 -->
  <path d="M180.5,218.5h11L186,228Zm-50.2-47h61.2l-19.1-33H111.2Zm27.1-40h11l-5.5-9.5ZM278.4,242l-5.5,9.5h11Zm-21.1-43.5-30.6,53h38.1l30.6-53ZM162.9,108l50.2,87-23.1,40,9.5,16.5h19.1L251.3,195,162.9,42l-51.7,89.5h38.1Zm-57.7,34L16.8,295l19.1,33,88.3-153Zm190.2,49.5-88.3-153H169l88.3,153Zm-138,140H334.1l19.1-33H176.5Zm125-96.5L296,258.5H195.5l-23.1-40H153.4L143.9,235l32.6,56.5H353.2L301.5,202Zm-142.6,7-19.1,33,30.6,53,19.1-33ZM99.1,298.5l50.2-87h46.2l9.5-16.5-9.5-16.5H130.3L42,331.5H145.3l-19.1-33ZM116.7,282l-5.5,9.5h11Z" fill="#333"/>
</svg>
