<svg xmlns="http://www.w3.org/2000/svg" viewBox="0 0 580 580">
  <title>sister-twist-one-color</title>
  <!-- Designed by Metafizzy, 2017 -->
  <path d="M430,143.8h-6.2v.2c-23.1,1.1-45.4,8.2-67.5,19.2V90a66.3,66.3,0,0,0-132.5,0v71.1A165.7,165.7,0,0,0,150,143.8C69.4,143.8,3.8,209.4,3.8,290S69.4,436.3,150,436.3h6.3v-.2c23.1-1.1,45.4-8.2,67.5-19.2V490a66.3,66.3,0,0,0,132.5,0V418.9A165.7,165.7,0,0,0,430,436.3c80.6,0,146.3-65.6,146.3-146.2S510.6,143.8,430,143.8Zm82.9,62.6A93.7,93.7,0,0,1,430,343.8c-23.3,0-45.3-10.3-63.8-29.4,7.7-5.9,15.2-11.4,22.5-16.4,12.6,12,26.8,18.3,41.3,18.3h3.5a86.2,86.2,0,0,0,79.4-109.9ZM399.4,290.8c21.2-13.4,30-14.5,30.7-14.6a13.8,13.8,0,0,1-.1,27.5C419.5,303.8,409.1,299.3,399.4,290.8ZM343.7,169.7c-9,5.1-18,10.7-27,16.8-.3-5.5-.5-11-.5-16.5V136.8A33.8,33.8,0,0,1,343.7,169.7ZM323.2,96.3a33.8,33.8,0,0,1-66.3,0Zm-18.3,98.5c-8.5,6.1-16.9,12.5-25.4,19a298.9,298.9,0,0,1-3.2-43.8V134.2a46.3,46.3,0,0,0,27.5,0V170C303.8,178.4,304.1,186.6,304.9,194.8Zm-23.5,84.5c53.4-42.7,103.8-83,148.6-83a53.7,53.7,0,0,1,45.4,82.5,46.3,46.3,0,0,0-45.4-55c-35.2,0-84.1,39.1-131.4,77-53.4,42.7-103.8,83-148.6,83a53.7,53.7,0,0,1-45.4-82.5,46.3,46.3,0,0,0,45.4,55C185.2,356.3,234.1,317.1,281.4,279.3ZM136.3,290A13.8,13.8,0,0,1,150,276.3c10.5,0,20.9,4.5,30.6,12.9-21.2,13.4-30,14.5-30.7,14.6A13.8,13.8,0,0,1,136.3,290Zm-120,0c0-73.7,60-133.7,133.8-133.7,25.6,0,50.4,6.4,73.8,19q.2,16.7,2,32.9c-20.2-14-42.5-22.2-65.8-24h0l-4.4-.3H150A126.3,126.3,0,0,0,29.8,348.6,132.9,132.9,0,0,1,16.3,290Zm32.2,71.1A113.7,113.7,0,0,1,150,196.3c28.1,0,54.9,10.2,78.2,29.4q2.1,12.6,5.1,24.8l-9.5,7.5c-20.3-21.4-44.6-33.3-70.7-34.2H150A106.3,106.3,0,0,0,48.4,361.1ZM150,423.8A73.9,73.9,0,0,1,85.8,313.5,66.3,66.3,0,0,0,150,396.3c49.2,0,101.3-41.7,156.4-85.8C352,274,399.2,236.3,430,236.3a33.7,33.7,0,0,1,26.2,55q0-.6,0-1.2A26.3,26.3,0,0,0,430,263.8c-2.6,0-13,1.2-37.5,16.7-21.2,13.4-44.4,31.9-68.9,51.5C264.6,379.2,208.9,423.8,150,423.8Zm125.1-38.6q9.6-6.9,19.2-14.3,3.8,4.3,7.8,8.4a301.7,301.7,0,0,1,1.6,30.7v35.8a46.3,46.3,0,0,0-27.5,0V410Q276.3,397.4,275.1,385.2ZM290,456.3a33.8,33.8,0,0,1,33.2,27.5H256.8A33.8,33.8,0,0,1,290,456.3ZM343.8,490a53.8,53.8,0,0,1-107.5,0V441.6a46.3,46.3,0,0,0,23.5,13.5,46.1,46.1,0,0,0-16,34.9v6.3h92.5V490a46.2,46.2,0,0,0-20-38V410q0-9.1-.5-18a197.5,197.5,0,0,0,28,20.1ZM430,383.8c-34.9,0-67.9-15.9-94.8-45.1l21.6-17.1c21.3,22.5,46.7,34.7,73.1,34.7A106.3,106.3,0,0,0,531.6,218.9,113.7,113.7,0,0,1,430,383.8Z" fill="#333"/>
</svg>
