<svg xmlns="http://www.w3.org/2000/svg" viewBox="0 0 1000 1000">
  <title>tri-arc-one-color</title>
  <path d="M500,22.3c166.9,0,305.2,122.7,329.5,282.8a373.5,373.5,0,0,0-162.9-37.4c-8.3,0-16.6.4-24.7.9C612.6,220.9,560.1,189,500,189a166.6,166.6,0,0,0-83.3,310.9L333.4,644.3C233.7,586.7,166.7,479,166.7,355.7,166.7,171.6,315.9,22.3,500,22.3Zm-43.3,622H333.3a331.8,331.8,0,0,0,22.9,121.1C413.4,754.7,456.7,704.5,456.7,644.3ZM546,955a332.3,332.3,0,0,0,120.7,22.6c184.1,0,333.3-149.2,333.3-333.3S850.8,311,666.7,311A331.7,331.7,0,0,0,500,355.7l83.4,144.4A166.5,166.5,0,0,1,833.3,644.3c0,90.5-72.2,164-162.2,166.4A379.2,379.2,0,0,1,546,955ZM0,644.3C0,828.4,149.2,977.7,333.3,977.7S666.7,828.4,666.7,644.3H500a166.7,166.7,0,1,1-313-79.7,374,374,0,0,1-62.4-180.1C48.6,445.7,0,539.3,0,644.3ZM605.1,537.6l61.6,106.7A335.1,335.1,0,0,0,760,564a122.7,122.7,0,0,0-155-26.3ZM438.4,462.3,500,355.7A331.7,331.7,0,0,0,383.8,315a122,122,0,0,0,54.6,147.3Z" fill="#333"/>
</svg>
