<svg xmlns="http://www.w3.org/2000/svg" viewBox="0 0 1000 1000">
  <title>tri-arc-connected</title>
  <!-- Designed by Metafizzy, 2017 -->
  <style>
    .ring { mix-blend-mode: multiply; }
  </style>
  <g style="isolation: isolate">
    <path class="ring" fill="#ed0" d="M500,644.3A166.6,166.6,0,0,0,214.5,527.6,335.4,335.4,0,0,0,333.4,644.3h-.1C333.3,835.5,494.2,989,687.9,977c166.6-10.3,301.9-146.3,311.5-313,11.2-195.1-145.4-356.4-338.9-353v.2a165.7,165.7,0,0,1-77.2,188.7v.2a165.7,165.7,0,0,1,84-22.4c88.4.4,163,72.8,165.9,161.1A166.7,166.7,0,1,1,500,644.3Z"/>
    <path class="ring" fill="#f69" d="M500,22.3c-184.1,0-333.3,149.2-333.3,333.3a331.3,331.3,0,0,0,47.9,171.9,166.1,166.1,0,0,1,202.1-27.4v-.2a166.7,166.7,0,1,1,166.5,0A167,167,0,0,0,500,644.5c.1,77.6,53.3,142.6,125.1,161a331.7,331.7,0,0,0,41.6-161.2C766.3,586.7,833.3,479,833.3,355.7,833.3,171.6,684.1,22.3,500,22.3Z"/>
    <path class="ring" fill="#19f" d="M500,355.7A331.7,331.7,0,0,0,333.3,311C149.2,311,0,460.2,0,644.3S149.2,977.7,333.3,977.7c125.6,0,234.9-69.5,291.8-172.1-71.8-18.5-125-83.4-125.1-161a167,167,0,1,1-83.4-144.4A166.5,166.5,0,0,0,660.4,311.2,331.5,331.5,0,0,0,500,355.7Z"/>
  </g>
</svg>
