<svg xmlns="http://www.w3.org/2000/svg" viewBox="0 0 640 640">
  <title>line-dragon-one-color</title>
  <!-- Designed by Metafizzy, 2017 -->
  <path fill="#333" d="M20 350A130 130 0 0 1 78 242L70 237V193l58 29A130 130 0 0 1 150 220a90 90 0 0 0 67-30l-49-98 30-30L239 143A90 90 0 0 0 150 40L130 0h20A130 130 0 0 1 264 193l24 49a120 120 0 0 0-33 23l-19-38a130 130 0 0 1-45 26l52 26A120 120 0 0 0 225 315L123 264A90 90 0 0 0 150 440v40A130 130 0 0 1 20 350ZM282 580l20-40-10-20H330V480H313a120 120 0 0 0 7-40H280a80 80 0 0 1-11 40H228l14 28A80 80 0 0 1 200 520H68l-50 100h70l5 10h45l-25-50h-30l10-20H200a119 119 0 0 0 54-13L218 620h70l5 10h45l-25-50Zm240 0-35-69A109 109 0 0 0 500 460c0-25-9-53-18-80C476 361 470 341 470 330H430c0 17 7 39 14 62S460 442 460 460a70 70 0 0 1-30 57V440H390v90H360v40h30v50h48l5 10h45l-25-50H430V562a110 110 0 0 0 30-18L498 620h40l5 10h45l-25-50ZM420 350V290a40 40 0 0 1 80 0V400h62l70-140H588L540 355V290a80 80 0 0 0-160 0v60a40 40 0 1 1-40-40h20V0L320 20V273A80 80 0 1 0 420 350ZM80 330l20 40H222a121 121 0 0 1 0-40Z" />
</svg>
