<svg xmlns="http://www.w3.org/2000/svg" viewBox="0 0 500 500">
  <title>puffin-no-feet</title>
  <!-- Designed by Metafizzy, 2017 -->
  <path d="M472,132c-1-4-14-35-43-67C388,23,335,0,275,0H175C92,0,25,67,25,150A149,149,0,0,0,63,250H25v50c0,110,90,200,200,200s200-90,200-200a199,199,0,0,0-8-55l11-11c29-31,42-63,43-67l7-18Z" fill="#333"/>
  <path d="M275,159V100H200a50,50,0,0,1,50,50H200V100H175a75,75,0,0,0,0,150,100,100,0,0,1,22,197l28,3h1a150,150,0,0,0,49-291Z" fill="#fff"/>
  <path d="M275,50V250c113,0,150-100,150-100S388,50,275,50Z" fill="#ea0"/>
  <path d="M275,50V250c56,0,75-100,75-100S331,50,275,50Z" fill="#19f"/>
</svg>
