<svg xmlns="http://www.w3.org/2000/svg" viewBox="0 0 500 500">
  <title>puffin-one-color</title>
  <!-- Designed by Metafizzy, 2017 -->
  <path d="M200,150V100a50,50,0,0,1,50,50Zm25,350a199,199,0,0,1-81-17,149,149,0,0,1-69,17H25V250H63A149,149,0,0,1,25,150C25,67,92,0,175,0H275c60,0,113,23,154,66,29,31,42,63,43,67l7,18-7,18c-1,4-14,35-43,67l-11,11a200,200,0,0,1-9,135,149,149,0,0,1,17,69v50Zm-84-75a150,150,0,0,1-58-75H75V450A100,100,0,0,0,141,425ZM425,150S388,50,275,50c56,0,75,100,75,100s-19,100-75,100V100H175a75,75,0,1,0,0,150,100,100,0,0,1,22,197l28,3h1a150,150,0,0,0,49-9v9H375a100,100,0,0,0-25-66,150,150,0,0,0,7-155C407,199,425,150,425,150Z" fill="#333"/>
</svg>
