<svg xmlns="http://www.w3.org/2000/svg" viewBox="0 0 300 300">
  <title>acorn-oakone-color</title>
  <path d="M55.4,163.9A27.9,27.9,0,1,1,80.4,114l14.4,7.2A39.9,39.9,0,0,0,90,140.1v.6a23.7,23.7,0,0,1-3.9-1.5l-14.7-7.3A7.9,7.9,0,0,0,64.4,146L90,158.8V170h10.8q.5,3.6,1.3,6.9a62.6,62.6,0,0,0,4.3,12.4Zm20-60,22.7,11.3.4.2a40.3,40.3,0,0,1,16-12.3,23.5,23.5,0,0,0-7.4-5.8L84.4,86a7.9,7.9,0,1,1,7.1-14.1l9.9,4.9a26.5,26.5,0,0,0,35.5-35.5,14.7,14.7,0,1,1,26.3,0,26.5,26.5,0,0,0,35.5,35.5l9.9-4.9A7.9,7.9,0,0,1,215.6,86L192.9,97.3a23.5,23.5,0,0,0-7.4,5.8,40.3,40.3,0,0,1,16,12.3l.4-.2,22.7-11.3A27.9,27.9,0,1,0,199.6,54l-9.9,4.9a6.5,6.5,0,0,1-8.7-8.7,34.7,34.7,0,1,0-62.1,0,6.5,6.5,0,0,1-8.7,8.7L100.4,54a27.9,27.9,0,1,0-24.9,49.9Zm161.4,86.3a27.7,27.7,0,0,0-27.1-1.2l-14.7,7.3a3.3,3.3,0,0,1-3.3-.1,3.5,3.5,0,0,1-1.1-1.1,52.8,52.8,0,0,1-13.7,14.7,23.7,23.7,0,0,0,4.3,3.4,23.3,23.3,0,0,0,22.8,1l14.7-7.3a7.9,7.9,0,0,1,7.1,14.1L150,258.8,74.4,221a7.9,7.9,0,0,1-.6-13.8,8.1,8.1,0,0,1,4.2-1.2,7.8,7.8,0,0,1,3.5.9l14.7,7.3a23.3,23.3,0,0,0,22.8-1,23.7,23.7,0,0,0,4.3-3.4,52.8,52.8,0,0,1-13.7-14.7,3.5,3.5,0,0,1-1.1,1.1,3.3,3.3,0,0,1-3.3.1L90.4,189a27.9,27.9,0,1,0-24.9,49.9L140,276.2V300h20V276.2l74.6-37.3a27.9,27.9,0,0,0,2.2-48.7Zm10-75a27.7,27.7,0,0,0-27.1-1.2l-14.4,7.2a39.9,39.9,0,0,1,4.8,18.9v.6a23.7,23.7,0,0,0,3.9-1.5l14.7-7.3a7.9,7.9,0,0,1,7.1,14.1L210,158.8V170H199.2q-.5,3.6-1.3,6.9a62.6,62.6,0,0,1-4.3,12.4l51-25.5a27.9,27.9,0,0,0,2.2-48.7ZM200,160H190a69,69,0,0,1-1.8,14.6c-4.5,19-17.4,31.5-36.3,35.2l-1.9.4-1.9-.4c-18.9-3.7-31.8-16.2-36.3-35.2A69,69,0,0,1,110,160H100V140.1A30.2,30.2,0,0,1,130.1,110H140V90h20v20h9.9A30.2,30.2,0,0,1,200,140.1Zm-80-20h60a10.1,10.1,0,0,0-10.1-10H130.1A10.1,10.1,0,0,0,120,140Zm50,20H130a48.1,48.1,0,0,0,1.3,10.5c2.6,10.4,8.7,16.8,18.6,19.3,10.1-2.5,16.2-9,18.8-19.7A48.7,48.7,0,0,0,170,160Z" fill="#444"/>
</svg>
