<svg xmlns="http://www.w3.org/2000/svg" viewBox="0 0 680 680">
  <title>excavator-no-border</title>
  <!-- Designed by Metafizzy, 2017 -->
  <path d="M368,488a56.1,56.1,0,0,1-56,56H264a56,56,0,0,0,0-112h48A56.1,56.1,0,0,1,368,488ZM184,432H56a56,56,0,0,0,0,112H184a56,56,0,0,0,0-112Zm8-192H144v48H64v64a48.1,48.1,0,0,0,48,48H272V320A80.1,80.1,0,0,0,192,240ZM562.6,364.4c-12.3-17.1-32.4-30.3-56-31.7H544V208.9a64.9,64.9,0,0,0-120.1-34.1l-.7,1.2H328.7a55.7,55.7,0,0,0-50.1,31l-16.5,33H304a79.9,79.9,0,0,1,64.9,33.4l55.9-28,46.9,93.9-3.9,1.7-39.6,19.8,53.5,106.9v66.9l73-73C586.1,430.3,581.3,390.2,562.6,364.4Z" fill="#333"/>
  <path d="M448,488a56.1,56.1,0,0,1-56,56H312a56,56,0,0,0,0-112h80A56.1,56.1,0,0,1,448,488ZM264,432H184a56,56,0,0,1,0,112h80a56,56,0,0,0,0-112ZM434.4,264.7l-9.6-19.2-55.9,28A79.9,79.9,0,0,0,304,240H192a80.1,80.1,0,0,1,80,80v80H384V320a79.4,79.4,0,0,0-5-27.6Zm222.8,99.7c-13.5-18.7-36.4-32.9-63-31.8H592V208.9A64.9,64.9,0,0,0,528,144H480a64.9,64.9,0,0,1,64,64.8V332.6H506.6c23.6,1.4,43.7,14.6,56,31.7,18.6,25.9,23.4,66-7.8,97.3l-41.4,41.4v31.5l31.5-31.5v31.5l31.6-31.5v31.6l73-73C680.7,430.3,675.9,390.2,657.3,364.4Z" fill="#ed0"/>
</svg>
