<svg xmlns="http://www.w3.org/2000/svg" viewBox="0 0 680 680">
  <title>excavator-one-color</title>
  <!-- Designed by Metafizzy, 2017 -->
    <path d="M392,432H56a56,56,0,0,0,0,112H392a56,56,0,0,0,0-112ZM264,532H219a56,56,0,0,0,0-88h45a44,44,0,0,1,0,88Zm128,0H347a56,56,0,0,0,0-88h45a44,44,0,0,1,0,88Z" fill="#333"/>
    <path d="M657,364c-14-19-36-33-63-32h-2V209a65,65,0,0,0-64-65H479a64,64,0,0,0-55,31H329a56,56,0,0,0-50,31l-17,33H144v48H64v64a48,48,0,0,0,48,48H384V320a79,79,0,0,0-5-28l55-28,37,75-4,2-40,20,53,107v67l32-32v32l32-32v32l32-32v32l73-73C681,430,676,390,657,364ZM372,388H272V320a80,80,0,0,0-38-68h70a68,68,0,0,1,68,68Zm2-107-5-8,56-28,4,8ZM517,156h11a53,53,0,0,1,52,53V333H544V209A65,65,0,0,0,517,156ZM641,453l-53,53V474l-32,32V474l-32,32V491l29-29c31-31,26-71,8-97a80,80,0,0,0-21-20h55c19,0,38,10,50,27S667,427,641,453Z" fill="#333"/>
</svg>
