<svg xmlns="http://www.w3.org/2000/svg" viewBox="0 0 860 860">
  <title>rabbit-runner-hatless-one-color</title>
  <!-- Designed by Metafizzy, 2017 -->
  <path d="M742 563a71 71 0 0 0-90-45 71 71 0 0 0-17 9c25-34 40-74 40-116 0-47-18-91-47-126l-58-174a85 85 0 0 0-160 57l11 39a241 241 0 0 0-50 11L270 118a84 84 0 0 0-60-25 85 85 0 0 0-60 145l93 92a188 188 0 0 0-8 141 71 71 0 0 0-94 32l-20 40a71 71 0 0 0 53 102 75 75 0 0 0 31 101v74a15 15 0 0 0 15 15 111 111 0 0 0 79-33l11-11 84 42a60 60 0 0 0 80-27l22-44 2-1a136 136 0 0 0 75-98l50 25a71 71 0 0 0 95-32l20-40a70 70 0 0 0 4-53zM440 116a55 55 0 0 1 102 5l41 124c-37-25-82-40-132-40l-13-46v-1a55 55 0 0 1 2-42zM226 637a115 115 0 0 0 4 87 45 45 0 0 1-4-87zm9 167v-49h5a76 76 0 0 0 11-1 114 114 0 0 0 31 23l-4 4a81 81 0 0 1-43 23zm477-201l-20 40a41 41 0 0 1-55 18l-70-35a15 15 0 0 0-22 14 106 106 0 0 1-36 79 40 40 0 0 0-40-34h-69a15 15 0 1 0 0 30h70a10 10 0 0 1 9 14l-32 64a30 30 0 0 1-40 13l-111-55a85 85 0 0 1-38-114l15-31a15 15 0 0 0-7-20l-20-10a15 15 0 0 0-20 7l-5 10a41 41 0 1 1-73-37l20-40a41 41 0 0 1 55-18l34 17a205 205 0 0 0 20 26 15 15 0 0 0 22-20c-28-31-44-71-44-111a158 158 0 0 1 13-63 15 15 0 0 0 9-26l-5-5-101-99a55 55 0 0 1 39-94 55 55 0 0 1 39 16l107 107a15 15 0 0 0 16 3 213 213 0 0 1 78-14c108 0 195 79 195 175 0 68-44 130-113 159a15 15 0 1 0 12 28 229 229 0 0 0 45-25l24 12a15 15 0 0 0 20-7l5-10a41 41 0 1 1 73 37zm-172-68a55 55 0 0 1-40-17 55 55 0 0 1-95-38 15 15 0 0 1 30 0 25 25 0 0 0 49 6l-35-35a15 15 0 0 1 21-21l30 29 29-29a15 15 0 1 1 21 21l-35 35a25 25 0 0 0 50-6 15 15 0 0 1 30 0 55 55 0 0 1-55 55zM410 405a25 25 0 1 1-25-25 25 25 0 0 1 25 25zm220 0a25 25 0 1 1-25-25 25 25 0 0 1 25 25z" fill="#333"/>
</svg>
