<svg xmlns="http://www.w3.org/2000/svg" viewBox="0 0 860 860">
  <title>rabbit-runner-one-color</title>
  <!-- Designed by Metafizzy, 2017 -->
  <path fill="#333" d="M410 405a25 25 0 1 1-25-25 25 25 0 0 1 25 25zm195 25a25 25 0 1 0-25-25 25 25 0 0 0 25 25zm-10 50a15 15 0 0 0-30 0 25 25 0 0 1-49 6l35-35a15 15 0 0 0-21-21l-30 29-29-29a15 15 0 0 0-21 21l35 35a25 25 0 0 1-50-6 15 15 0 0 0-30 0 55 55 0 0 0 95 38 55 55 0 0 0 95-38zm112 42a70 70 0 0 0-54-4 71 71 0 0 0-17 9c25-34 40-74 40-116 49-36 75-74 66-106s-48-51-106-58V130a85 85 0 0 0-68-83v-1a18 18 0 0 0-1-5C557 9 460 8 348 38s-196 81-187 113a18 18 0 0 0 2 5l14 33a82 82 0 0 0-44 155l59 30c-38 32-58 65-50 94a50 50 0 0 0 11 20 71 71 0 0 0-12 17l-20 40a71 71 0 0 0 53 100 75 75 0 0 0 31 101v74a15 15 0 0 0 15 15 111 111 0 0 0 79-33l11-11 84 42a60 60 0 0 0 80-27l22-44a135 135 0 0 0 78-100l50 25a71 71 0 0 0 95-32l20-40a71 71 0 0 0-32-93zM495 130a55 55 0 0 1 110 0v114c-33-1-70 1-110 7zm-105 62a559 559 0 0 1 75-15v80c-18 4-36 8-54 13q-19 5-36 11l-93-47c29-15 66-30 108-42zM147 317a52 52 0 1 1 47-93l141 70c-45 17-84 37-115 59zm48 363a45 45 0 0 1 31-43 114 114 0 0 0-1 74 117 117 0 0 0 5 12 45 45 0 0 1-35-43zm83 101a81 81 0 0 1-43 23v-49h5a76 76 0 0 0 11-1 115 115 0 0 0 31 23zm434-178l-20 40a41 41 0 0 1-55 18l-70-35a15 15 0 0 0-22 14 105 105 0 0 1-36 79 40 40 0 0 0-40-34h-69a15 15 0 0 0 0 30h70a10 10 0 0 1 9 14l-32 64a30 30 0 0 1-40 13l-111-55a85 85 0 0 1-38-114l15-31a15 15 0 0 0-7-20l-20-10a15 15 0 0 0-20 7l-5 10a41 41 0 0 1-73-37l20-40a41 41 0 0 1 55-18l28 14a15 15 0 0 0 5 1 205 205 0 0 0 21 28 15 15 0 1 0 22-20c-24-26-38-57-43-90 0-32 74-77 170-103 91-25 173-25 195-1a159 159 0 0 1 24 83c0 68-44 130-113 159a15 15 0 1 0 12 28 229 229 0 0 0 45-25l24 12a15 15 0 0 0 20-7l5-10a41 41 0 0 1 73 37z"/>
</svg>
