<svg xmlns="http://www.w3.org/2000/svg" viewBox="0 0 1000 1000">
  <title>hex-lion-dark-bg</title>
  <!-- Designed by Metafizzy, 2017 -->
  <path fill="#fff" d="M176 459 60 526V428l116-67ZM144 308 60 259v98Zm178 406V616L91 750l84 49ZM207 513 60 598v98L291 562ZM715 50 500 174 286 50 201 99l161 93H638L799 99ZM573 568V531H427v38l42 24v36l-84 49V544L238 459V326L362 254H638l124 72V459L616 544V678l-84-49v-36Zm-134-214H300v62h77v25l62 36Zm183 87v-25h77V354h-139V478ZM60 187l147 85 84-49-152-88L60 180ZM438 816l-84-49L238 834l84 49ZM856 308 940 356V259Zm-271 424L500 683l-84 49L500 780ZM500 102 652 14H348Zm0 750L385 919 500 986l116-67ZM825 362v98L940 526V428Zm-31-90L940 187v-6l-79-46-152 88ZM762 834 647 768l-84 49 116 67ZM678 616v98l147 85 84-49ZM793 513 709 562 940 696V598Z"/>
</svg>
