<svg xmlns="http://www.w3.org/2000/svg" viewBox="0 0 1000 1000">
  <title>swivel-one-color</title>
  <!-- Designed by Metafizzy, 2017 -->
  <path d="M1000,250C1000,112,888,0,750,0H649C779,0,888,101,898,231l22,295a250,250,0,0,1-73,48L789,211A250,250,0,0,0,542,0H428A250,250,0,0,1,671,188L775,593H700L541,163A250,250,0,0,0,307,0H250C112,0,0,112,0,250v94C14,235,86,133,225,102L351,74a249,249,0,0,1,47,64l2,3L142,270C50,316,5,397,0,481V667c4-56,30-112,80-155L433,210l34,68h0L120,740c-80,107-4,260,130,260H750c138,0,250-112,250-250V669c0,138-112,250-250,250H321a189,189,0,0,1-32-81H750c138,0,250-112,250-250V506c0,138-112,250-250,250H296a192,192,0,0,1,11-28l27-54H750c138,0,250-112,250-250ZM375,594,500,344,625,594Z" fill="#046"/>
</svg>
