<svg xmlns="http://www.w3.org/2000/svg" viewBox="0 0 720 720">
  <title>osprey-one-color</title>
  <!-- Designed by Metafizzy, 2017 -->
  <path d="M530 300a40 40 0 1 1-40-40 40 40 0 0 1 40 40zm-300-40a40 40 0 1 0 40 40 40 40 0 0 0-40-40zm450 357l3 23h-23c-40 0-109-14-154-35-33 41-61 67-79 82s-46 33-67 33-47-18-66-33-47-41-79-82c-46 21-115 35-155 35H37l3-23c1-7 20-140 33-209a241 241 0 0 0-25 10L7 437l14-43a706 706 0 0 1 35-88 457 457 0 0 1 24-46H36l5-24c5-24 19-58 42-87l-42-38 103-32C203 27 278 0 360 0s157 27 216 79l103 32-41 38c22 29 37 63 42 87l5 24h-45a457 457 0 0 1 25 46 706 706 0 0 1 35 88l14 43-41-19a241 241 0 0 0-25-10c12 70 31 202 32 209zM138 147l-14 15c-13 14-24 30-31 46 42-33 110-50 166-7 5-13 3-21 0-40 81 35 93 115 72 165a93 93 0 0 1 58 0c-21-50-9-130 72-165-3 19-5 27 0 40 56-43 124-26 166 7-8-16-18-32-31-46l-14-15 19-18-45-14-3-3c-52-47-119-72-193-72s-140 25-192 72l-3 3-46 14zm170 260c7 24 24 40 53 48 29-9 46-24 53-48-18 5-40 9-53 33-13-24-36-28-53-33zm329 192c-4-29-10-67-16-104l-79-107a80 80 0 1 0-117-40c10 11 15 23 15 32 0 66-42 90-80 100-38-10-80-34-80-100 0-9 5-21 15-32a80 80 0 1 0-117 40L99 494c-6 37-12 76-16 104 41-4 97-18 127-35l15-9 11 14c62 83 113 111 124 112s62-29 124-112l11-14 15 9c30 17 86 31 127 36z" fill="#333"/>
</svg>
