<svg xmlns="http://www.w3.org/2000/svg" viewBox="0 0 344 344">
  <!-- Designed by Metafizzy, 2017 -->
  <title>kick-flip-stego-one-color-fill</title>
  <path d="M230,312H208V296h18l73-31,15-15,11,11-17,17Zm18,0a8,8,0,1,0,8,8A8,8,0,0,0,248,312Zm56-24a8,8,0,1,0,8,8A8,8,0,0,0,304,288ZM200,68h17l12-12L200,8,171,57l12,12Zm74,23,16-4-2-38L253,65l4,16ZM149,78l5-17L104,34V90l17,5A131,131,0,0,1,149,78Zm164,54h5l14-25-28,4v5ZM117,302h-5l-4,28,25-14v-5ZM81,258l-16-4L48,288l38,2,4-16ZM69,217a133,133,0,0,1,0-33L57,171,8,200l48,29ZM84,103H34l27,49,17-5,6-12ZM240,232l-41-12-15,22,5,14-2,5,38,11,32-40Zm74-80-13,44H267l-10-37a27,27,0,0,0-53,7v32l-24,34v-2l-8,3,7,22-14,28H139l-22-65,36-7-2-8-44,9,26,79h16a52,52,0,0,0,16,27A124,124,0,0,1,91,142l53,27,6-6L92,134V94l84,42,6-6-57-29a124,124,0,0,1,190,50Zm-25,0a12,12,0,0,0-12-12v24A12,12,0,0,0,289,152Z" fill="#333"/>
</svg>
