<svg xmlns="http://www.w3.org/2000/svg" viewBox="0 0 600 600">
  <title>brainstorm-sheep-black-one-color</title>
  <!-- Designed by Metafizzy, 2017 -->
  <path d="M600,310a104.7,104.7,0,0,0-28.5-71.9,37,37,0,0,0-7.9-40.4c-9.1-9.1-24.8-14.8-38.7-16.7A165,165,0,0,0,240,155.1a105,105,0,0,0-140,50A105,105,0,0,0,105,415V520h90L155.6,415h45L240,520h85l-67.5-60h30l-16.9-45h45l16.9,45h-30L325,520h80L365.6,415h45L450,520h60L470.6,415H495A105.1,105.1,0,0,0,600,310Zm-130-7.5c-12.4,18.6-32.6,33.8-45,33.8s-32.6-15.2-45-33.7c-10.1-15.2-18.7-38.2-21.5-56.2H335c-12.4,0-27.6-5.1-33.7-11.2a16,16,0,0,1,0-22.5c6.2-6.2,21.4-11.2,33.8-11.2,9.2,0,21.2,4,30.3,9.6,6.2-9.5,15.5-17.4,26-20.9,18.6-6.2,48.9-6.2,67.5,0,10.4,3.5,19.7,11.4,25.9,20.9,9.1-5.7,21.1-9.6,30.3-9.6,12.4,0,27.6,5.1,33.8,11.3a16,16,0,0,1,0,22.5c-6.2,6.2-21.4,11.3-33.7,11.3H491.5C488.7,264.3,480.1,287.3,470,302.5Z" fill="#333"/>
</svg>
