<svg xmlns="http://www.w3.org/2000/svg" viewBox="0 0 1000 1000">
  <title>circle-eye-fill</title>
  <!-- Designed by Metafizzy, 2017 -->
  <path d="M500,292c142.1,0,264.6,85.6,318.6,208A346,346,0,0,0,848,360C848,168.1,691.9,12,500,12S152,168.1,152,360a346,346,0,0,0,29.4,140C235.4,377.6,357.9,292,500,292Z" fill="#e21"/>
  <path d="M500,708c-142.1,0-264.6-85.6-318.6-208A346,346,0,0,0,152,640c0,191.9,156.1,348,348,348S848,831.9,848,640a346,346,0,0,0-29.4-140C764.6,622.4,642.1,708,500,708Z" fill="#19f"/>
  <path d="M818.6,500a349.7,349.7,0,0,0-91.2-123.2,15.9,15.9,0,0,1-4.7-16.9L747,284.2a8,8,0,0,0-12.8-8.5L673.6,327a15.9,15.9,0,0,1-17.4,2.1,345.7,345.7,0,0,0-46.9-19.5,15.9,15.9,0,0,1-10.8-13.8L592,216.7a8,8,0,0,0-15.1-3l-36.3,70.6a15.9,15.9,0,0,1-15.3,8.6c-8.4-.6-16.9-1-25.4-1s-17,.3-25.4,1a15.9,15.9,0,0,1-15.3-8.6l-36.3-70.6a8,8,0,0,0-15.1,3l-6.5,79.1a15.9,15.9,0,0,1-10.8,13.8,345.7,345.7,0,0,0-46.9,19.5,15.9,15.9,0,0,1-17.4-2.1l-60.6-51.4a8,8,0,0,0-12.8,8.5l24.3,75.7a15.9,15.9,0,0,1-4.7,16.9A349.7,349.7,0,0,0,181.4,500,350.3,350.3,0,0,0,328.4,662.6a15.9,15.9,0,0,1,7.8,15.6l-9,78.6a8,8,0,0,0,14.2,5.9l49.1-61.8a15.9,15.9,0,0,1,16.7-5.5,345.7,345.7,0,0,0,50.2,9.9,15.9,15.9,0,0,1,13.3,11.5l21.7,76a8,8,0,0,0,15.4,0l21.7-76a15.9,15.9,0,0,1,13.3-11.5,345.7,345.7,0,0,0,50.2-9.9,15.9,15.9,0,0,1,16.7,5.5l49.1,61.8a8,8,0,0,0,14.2-5.9l-9-78.6a15.9,15.9,0,0,1,7.8-15.6A350.3,350.3,0,0,0,818.6,500Z" fill="#333"/>
  <path d="M500,652c-110.3,0-206.5-61.5-256.2-152C293.5,409.5,389.7,348,500,348s206.5,61.5,256.2,152C706.5,590.5,610.3,652,500,652Z" fill="#fff"/>
  <path d="M500,344c-75,0-136,61-136,136s61,136,136,136,136-61,136-136S575,344,500,344Zm95.6,118.4-29.9,12.1a6,6,0,0,0,0,11.1l29.9,12.1a8.1,8.1,0,0,1,4.7,9.6,103.4,103.4,0,0,1-10.2,24.6,8,8,0,0,1-10.1,3.4l-29.6-12.6a6,6,0,0,0-7.9,7.9l12.6,29.6a8,8,0,0,1-3.4,10.1,103.4,103.4,0,0,1-24.6,10.2,8.1,8.1,0,0,1-9.6-4.7l-12.1-29.9a6,6,0,0,0-11.1,0l-12.1,29.9a8.1,8.1,0,0,1-9.6,4.7,103.4,103.4,0,0,1-24.6-10.2,8,8,0,0,1-3.4-10.1l12.6-29.6a6,6,0,0,0-7.9-7.9l-29.6,12.6a8,8,0,0,1-10.1-3.4,103.4,103.4,0,0,1-10.2-24.6,8.1,8.1,0,0,1,4.7-9.6l29.9-12.1a6,6,0,0,0,0-11.1l-29.9-12.1a8.1,8.1,0,0,1-4.7-9.6,103.4,103.4,0,0,1,10.2-24.6,8,8,0,0,1,10.1-3.4l29.6,12.6a6,6,0,0,0,7.9-7.9l-12.6-29.6a8,8,0,0,1,3.4-10.1,103.4,103.4,0,0,1,24.6-10.2,8.1,8.1,0,0,1,9.6,4.7l12.1,29.9a6,6,0,0,0,11.1,0l12.1-29.9a8.1,8.1,0,0,1,9.6-4.7,104.4,104.4,0,0,1,73.2,73.2A8.1,8.1,0,0,1,595.6,462.4ZM540,478.9A40,40,0,0,1,500,520h-2.3a4,4,0,0,1-2.9-6.6,20,20,0,0,0-28.2-28.2,4,4,0,0,1-6.6-2.9q-.1-1.1-.1-2.3a40,40,0,0,1,41.1-40A40.4,40.4,0,0,0,540,478.9Z" fill="#333"/>
</svg>
