<svg xmlns="http://www.w3.org/2000/svg" viewBox="0 0 1000 1000"  fill="#333">
  <title>circle-eye-one-color</title>
  <!-- Designed by Metafizzy, 2017 -->
  <path d="M501.1,440A40,40,0,0,0,460,480q0,1.1.1,2.3a4,4,0,0,0,6.6,2.9,20,20,0,0,1,28.2,28.2,4,4,0,0,0,2.9,6.6H500a40,40,0,0,0,40-41.1A40.4,40.4,0,0,1,501.1,440Z"/>
  <path d="M848,360C848,168.1,691.9,12,500,12S152,168.1,152,360a346,346,0,0,0,29.4,140A346,346,0,0,0,152,640c0,191.9,156.1,348,348,348S848,831.9,848,640a346,346,0,0,0-29.4-140A346,346,0,0,0,848,360ZM500,932c-161,0-292-131-292-292a291.2,291.2,0,0,1,10.1-76.2h0a350.8,350.8,0,0,0,110.2,98.8,15.9,15.9,0,0,1,7.8,15.6l-9,78.6a8,8,0,0,0,14.2,5.9l49.1-61.8a15.9,15.9,0,0,1,16.7-5.5,345.7,345.7,0,0,0,50.2,9.9,15.9,15.9,0,0,1,13.3,11.5l21.7,76a8,8,0,0,0,15.4,0l21.7-76a15.9,15.9,0,0,1,13.3-11.5,345.7,345.7,0,0,0,50.2-9.9,15.9,15.9,0,0,1,16.7,5.5l49.1,61.8a8,8,0,0,0,14.2-5.9l-9-78.6a15.9,15.9,0,0,1,7.8-15.6,350.8,350.8,0,0,0,110.2-98.8h0A291.2,291.2,0,0,1,792,640C792,801,661,932,500,932Zm65.8-446.4,29.9,12.1a8.1,8.1,0,0,1,4.7,9.6,103.4,103.4,0,0,1-10.2,24.6,8,8,0,0,1-10.1,3.4l-29.6-12.6a6,6,0,0,0-7.9,7.9l12.6,29.6a8,8,0,0,1-3.4,10.1,103.4,103.4,0,0,1-24.6,10.2,8.1,8.1,0,0,1-9.6-4.7l-12.1-29.9a6,6,0,0,0-11.1,0l-12.1,29.9a8.1,8.1,0,0,1-9.6,4.7,103.4,103.4,0,0,1-24.6-10.2,8,8,0,0,1-3.4-10.1l12.6-29.6a6,6,0,0,0-7.9-7.9l-29.6,12.6a8,8,0,0,1-10.1-3.4,103.4,103.4,0,0,1-10.2-24.6,8.1,8.1,0,0,1,4.7-9.6l29.9-12.1a6,6,0,0,0,0-11.1l-29.9-12.1a8.1,8.1,0,0,1-4.7-9.6,103.4,103.4,0,0,1,10.2-24.6,8,8,0,0,1,10.1-3.4l29.6,12.6a6,6,0,0,0,7.9-7.9l-12.6-29.6a8,8,0,0,1,3.4-10.1,103.4,103.4,0,0,1,24.6-10.2,8.1,8.1,0,0,1,9.6,4.7l12.1,29.9a6,6,0,0,0,11.1,0l12.1-29.9a8.1,8.1,0,0,1,9.6-4.7,104.4,104.4,0,0,1,73.2,73.2,8.1,8.1,0,0,1-4.7,9.6l-29.9,12.1A6,6,0,0,0,565.8,485.6ZM364,480c0,75,61,136,136,136s136-61,136-136a136.2,136.2,0,0,0-91.9-128.7c91.5,13.9,169.2,70.5,212.1,148.7C706.5,590.5,610.3,652,500,652S293.5,590.5,243.8,500c42.9-78.2,120.6-134.8,212.1-148.7A136.2,136.2,0,0,0,364,480Zm417.9-43.8h0a351.4,351.4,0,0,0-54.5-59.4,15.9,15.9,0,0,1-4.7-16.9L747,284.2a8,8,0,0,0-12.8-8.5L673.6,327a15.9,15.9,0,0,1-17.4,2.1,345.7,345.7,0,0,0-46.9-19.5,15.9,15.9,0,0,1-10.8-13.8L592,216.7a8,8,0,0,0-15.1-3l-36.3,70.6a15.9,15.9,0,0,1-15.3,8.6c-8.4-.6-16.9-1-25.4-1s-17,.3-25.4,1a15.9,15.9,0,0,1-15.3-8.6l-36.3-70.6a8,8,0,0,0-15.1,3l-6.5,79.1a15.9,15.9,0,0,1-10.8,13.8,345.7,345.7,0,0,0-46.9,19.5,15.9,15.9,0,0,1-17.4-2.1l-60.6-51.4a8,8,0,0,0-12.8,8.5l24.3,75.7a15.9,15.9,0,0,1-4.7,16.9,351.4,351.4,0,0,0-55,60.1l.5-.7A291.2,291.2,0,0,1,208,360C208,199,339,68,500,68S792,199,792,360A291.2,291.2,0,0,1,781.9,436.2Z"/>
</svg>
