<svg xmlns="http://www.w3.org/2000/svg" viewBox="0 0 1056 1056">
  <title>octopus-adorabilis-one-color</title>
  <path d="M737,495c0-18,20-33,44-33s44,15,44,33-7,33-15,33-15-5-15-11-7-11-15-11-15,5-15,11-7,11-15,11S737,513,737,495Zm284,326c-38,73-98,103-207,103a175,175,0,0,1-46-6,126,126,0,0,1-86,34c-57,0-74-12-90-23s-30-21-64-21-49,11-64,21-33,23-90,23a126,126,0,0,1-86-34,175,175,0,0,1-46,6C133,924,73,894,35,821,7,768,27,701,81,673a110,110,0,0,1,113,7h0l14,8,10,2a22,22,0,0,0,10-42c-45-23-75-79-75-143,0-34,9-66,23-91C190,232,342,88,528,88S866,232,879,415c14,25,23,57,23,91,0,63-29,120-75,143a22,22,0,0,0,10,42l10-2,14-8h0a110,110,0,0,1,113-7C1029,701,1049,768,1021,821ZM275,572c43,0,77-5,77-66s-34-110-77-110-77,49-77,110S232,572,275,572ZM455,719c-1-2-27-53-103-53S215,730,215,825a17,17,0,0,0,33,0c0-58,27-126,105-126,54,0,73,34,73,35a17,17,0,1,0,30-15ZM704,506c0,61,34,66,77,66s77-5,77-66-34-110-77-110S704,445,704,506ZM842,825c0-95-55-159-137-159s-102,51-103,53a17,17,0,0,0,30,15s18-35,73-35c77,0,105,68,105,127a17,17,0,0,0,33,0ZM290,517c0,6,7,11,15,11s15-15,15-33-20-33-44-33-44,15-44,33,7,33,15,33,15-5,15-11,7-11,15-11S290,511,290,517Z" fill="#e62"/>
</svg>
