<svg xmlns="http://www.w3.org/2000/svg" viewBox="0 0 432 432">
  <title>blue-jay-one-color</title>
  <!-- Designed by Metafizzy, 2017 -->
  <path d="M363.5,179.8C347.3,130.7,290.7,96,224,96H208v57.4L9.4,352h93.3l31.5-31.5a144,144,0,0,0,231.3-85.3L419.8,208ZM300,164a44,44,0,0,1,43.2,36H318.3a20,20,0,0,0-36.6,0H256.8A44,44,0,0,1,300,164ZM224,288H192l-16-16h32Zm-48-48,16,16H160l-16-16Zm48,96h0a127.5,127.5,0,0,1-84.6-32H224a48,48,0,0,0,26.5-88h31.2a20,20,0,0,0,36.6,0H344l7.1,7.1A128,128,0,0,1,224,336Z" fill="#333"/>
</svg>
