<svg xmlns="http://www.w3.org/2000/svg" viewBox="0 0 380 380">
  <title>chicken-egg-one-color</title>
  <!-- Designed by Metafizzy, 2017 -->
  <path d="M260,240a80,80,0,1,1-80-80A80,80,0,0,1,260,240Zm-80-60a60,60,0,1,0,60,60A60,60,0,0,0,180,180Z" fill="#333"/>
  <path d="M350,140V130H329.7a30,30,0,0,0-7.2-30.7l-7.1-7.1-17.3,17.3A30,30,0,0,0,270,90H260v26a30,30,0,0,0-40.7,1.6l-7.1,7.1,28.3,28.3a40,40,0,0,0,6.1,5h0a39.8,39.8,0,0,0-5.9,14.2l-8.4,39.4A35.9,35.9,0,0,1,197.3,240H138.4a21.4,21.4,0,0,1-20.6-16A60,60,0,0,0,60,180H44.4q-1.5,9.8-2.5,20H60a40.1,40.1,0,0,1,38.6,29.4A41.6,41.6,0,0,0,138.4,260h58.9A55.9,55.9,0,0,0,252,215.8l8.4-39.4h.1a20,20,0,0,1,39-1.1l.6,2.4V240a120,120,0,0,1-240,0q0-10,.5-20h-20c-.3,6.6-.5,13.3-.5,20a140,140,0,1,0,280,0v-5a15,15,0,0,0,30,0V220a30,30,0,0,0-30-30h30c0-11-13.4-20-30-20A30,30,0,0,0,350,140ZM68.5,160H48C67.2,66.8,119,0,180,0c38.6,0,73.5,26.7,98.8,70H255.1c-21-31.3-47.4-50-75.1-50C131.3,20,86.6,77.7,68.5,160ZM280,190a10,10,0,1,1,10-10A10,10,0,0,1,280,190Z" fill="#333"/>
</svg>
