<svg xmlns="http://www.w3.org/2000/svg" viewBox="0 0 380 380">
  <title>chicken-egg-black-fill</title>
  <!-- Designed by Metafizzy, 2017 -->
  <path d="M320,240C320,107.5,257.3,0,180,0S40,107.5,40,240Z" fill="#ed0"/>
  <path d="M350,130v10a30,30,0,0,1-30,30H260v-6.3a39.8,39.8,0,0,1-19.5-10.7l-28.3-28.3,7.1-7.1A30,30,0,0,1,260,116V90h10a30,30,0,0,1,28.1,19.5l17.3-17.3,7.1,7.1a30,30,0,0,1,7.2,30.7Zm-30,60h0v45a15,15,0,1,0,30,0V220A30,30,0,0,0,320,190Z" fill="#e21"/>
  <circle cx="180" cy="240" r="80" fill="#fff"/>
  <path d="M350,190c0-11-13.4-20-30-20h-1.3a40,40,0,0,0-78,2.2l-8.4,39.4A35.9,35.9,0,0,1,197.3,240H138.4a21.4,21.4,0,0,1-20.6-16A60,60,0,0,0,60,180H44.4A404.7,404.7,0,0,0,40,240h0a140,140,0,1,0,280,0V190Z" fill="#333"/>
  <path d="M180,320a80,80,0,0,0,58-135l-5.7,26.6A35.9,35.9,0,0,1,197.3,240H138.4a21.4,21.4,0,0,1-20.6-16,59.8,59.8,0,0,0-9.5-19.6A80,80,0,0,0,180,320Z" fill="#e21"/>
  <circle cx="280" cy="180" r="10" fill="#fff"/>
</svg>
