<svg xmlns="http://www.w3.org/2000/svg" viewBox="0 0 912 912">
  <!-- Designed by Metafizzy, 2017 -->
  <title>pretty-kitty-one-color</title>
  <path d="M809 555C912 448 922 250 893 159a30 30 0 0 0-15-17c-21-11-55-17-94-17-76 0-159 20-231 75C522 191 490 186 456 186h0c-34 0-66 5-96 14-72-55-156-75-231-75-40 0-73 6-94 17a30 30 0 0 0-15 17C-9 250 0 448 103 555c-11 53-13 90-13 91a30 30 0 0 0 7 21C168 743 290 822 456 822S744 743 815 667a30 30 0 0 0 7-21C822 645 820 608 809 555Zm-53-6a734 734 0 0 1 15 91C680 729 573 771 457 771S232 729 142 641a734 734 0 0 1 15-91 21 21 0 0 0-7-20C65 453 41 287 66 184c81-29 221 11 274 66 6 6 14 7 22 4h0Q405 237 456 237c34 0 66 6 95 16h0c7 3 16 1 22-4 53-54 193-95 274-66 25 103 1 269-84 346A21 21 0 0 0 756 550ZM171 450a18 18 0 0 1-17-25c14-34 31-64 49-91A168 168 0 0 0 168 330a18 18 0 0 1-13-31l29-29C167 265 143 258 120 258a18 18 0 0 1 0-36c52 0 102 25 104 26a18 18 0 0 1 5 29l-22 22a275 275 0 0 1 32 9 18 18 0 0 1 9 28c-23 29-43 64-60 104A18 18 0 0 1 171 450Zm570 0a18 18 0 0 1-17-11c-17-40-37-75-60-104a18 18 0 0 1 9-29 275 275 0 0 1 32-9l-22-22a18 18 0 0 1 5-29c2-1 52-26 104-26a18 18 0 0 1 0 36c-23 0-47 7-64 12l29 29A18 18 0 0 1 744 330a168 168 0 0 0-35 4c19 27 35 57 49 91A18 18 0 0 1 741 450ZM516 729a89 89 0 0 1-60-23A89 89 0 0 1 396 729c-34 0-64-18-79-48a21 21 0 0 1 38-19c8 15 23 24 41 24s34-9 41-24a21 21 0 0 1 38 0c8 15 23 24 41 24s34-9 41-24a21 21 0 1 1 38 19C580 711 550 729 516 729ZM405 528c0 1-0 1-0 1-0 52-26 95-58 95-21 0-39-18-49-45a12 12 0 0 1 4-14l40-33a6 6 0 0 0 0-9l-40-33a12 12 0 0 1-4-14c5-14 13-26 22-34a6 6 0 0 0-2-10A40 40 0 0 0 300 429c-34 0-63 45-63 99 0 24 6 46 16 64 5 10 4 22-5 28a21 21 0 0 1-31-7C202 589 195 560 195 528c0-79 46-141 105-141S405 449 405 528Zm312 0c0 32-7 61-22 86a21 21 0 0 1-31 7c-9-6-11-19-5-28 10-18 16-41 16-64 0-54-29-99-63-99a40 40 0 0 0-18 4 6 6 0 0 0-2 10c9 8 17 20 22 34a12 12 0 0 1-4 14l-40 33a6 6 0 0 0 0 9l40 33a12 12 0 0 1 4 14c-10 27-29 45-49 45-32 0-58-42-58-95 0-0-0-1-0-1 0-79 46-141 105-141S717 449 717 528Z" fill="#333"/>
</svg>
