<svg xmlns="http://www.w3.org/2000/svg" viewBox="0 0 560 560">
  <title>bolt-circle-sharp</title>
  <!-- Designed by Metafizzy, 2017 -->
  <path fill="#ea0" d="M333.7 87.3L280 200v-80a159.4 159.4 0 0 0-63.8 13.3L280 0v80a200 200 0 0 1 53.7 7.3zm-171.3 31l-47-64.8L142 198.8a159.4 159.4 0 0 1 44-48.2l47 64.7-22.8-122.8a200 200 0 0 0-47.8 25.7zm-72.7 100l-76-24.8 107 102a159.4 159.4 0 0 1 7-65l76.2 24.8-90.7-86a200 200 0 0 0-23.5 49zm0 123.5l-76 24.7L160.2 386a159.4 159.4 0 0 1-32.4-56.6l76-24.7-123.7-16.2a200 200 0 0 0 9.8 53.3zm72.7 100l-47 64.7 130-70.3a159.4 159.4 0 0 1-59.4-26.8l47-64.7-109.7 59.6a200 200 0 0 0 39 37.5zM280 480v80l63.8-133.3A159.4 159.4 0 0 1 280 440v-80l-53.7 112.7A200 200 0 0 0 280 480zm117.6-38.2l47 64.7L418 361.2a159.4 159.4 0 0 1-44 48.2l-47-64.7 22.8 122.7a200 200 0 0 0 47.8-25.6zm72.7-100l76 24.7-107-102a159.4 159.4 0 0 1-7 65l-76-24.8 90.5 86a200 200 0 0 0 23.4-49zm0-123.6l76-24.7L400 174a159.4 159.4 0 0 1 32.4 56.5l-76 24.7 123.7 16.2a200 200 0 0 0-9.8-53.2zm-72.7-100l47-64.7-130 70.3a159.4 159.4 0 0 1 59.4 26.8l-47 64.7 109.7-59.6a200 200 0 0 0-39-37.5z"/>
</svg>
