<svg xmlns="http://www.w3.org/2000/svg" viewBox="0 0 560 560">
  <title>lone-wolf-one-color</title>
  <!-- Designed by Metafizzy, 2017 -->
  <path d="M420,4.6,402.3,22.3,316.7,108a226.7,226.7,0,0,0-36.3-3H280a221.6,221.6,0,0,0-36.6,3L157.7,22.3,140,4.6,122.3,22.3A229.9,229.9,0,0,0,55,184.9v256l116.6,21.2,4,10.5a111.6,111.6,0,0,0,209,0l4-10.5L505,440.9v-256A229.9,229.9,0,0,0,437.7,22.3L420,4.6ZM440,210a199.1,199.1,0,0,1,40,120v90L370,440l-8.9,23.8A86.6,86.6,0,0,1,280,520h0a86.6,86.6,0,0,1-81.1-56.2L190,440,80,420V331.7a201.6,201.6,0,0,1,44.9-126.6L83,247A204.9,204.9,0,0,1,135,45l5-5,95.2,95.2a195.8,195.8,0,0,1,45.2-5.2,200.6,200.6,0,0,1,44.6,5.1L420,40l5,5a204.9,204.9,0,0,1,52,202ZM130.2,198.8c-.2-2.9-.3-5.9-.3-8.8a149.4,149.4,0,0,1,15.6-66.7l34.3,34.3A203.8,203.8,0,0,0,130.2,198.8Zm299.7-1.2q.2-3.8.2-7.6a149.4,149.4,0,0,0-15.6-66.7l-33.9,33.9A200.9,200.9,0,0,1,429.9,197.6ZM240,450v10a40,40,0,0,0,80,0V450ZM130,300l25.1,15.1a37.5,37.5,0,0,0,52.7,31.6L230,360V300Zm87.5,12.5a25,25,0,0,1-50,0H180a12.5,12.5,0,0,0,25,0h12.5M430,300l-25.1,15.1a37.5,37.5,0,0,1-52.7,31.6L330,360V300Zm-87.5,12.5a25,25,0,0,0,50,0H380a12.5,12.5,0,0,1-25,0H342.5" fill="#254"/>
</svg>
